<svg width="150" height="36" viewBox="0 0 150 36" fill="none" xmlns="http://www.w3.org/2000/svg">
<rect width="150" height="36" rx="18" fill="#1E1A1A"/>
<path d="M20.7881 26.0361C20.7881 26.0361 23.6012 26.0514 24.7882 25.1208C25.9753 24.1902 26.0111 20.967 26.0111 20.967C26.0111 20.967 26.092 24.2696 27.2339 25.1208C28.3758 25.972 31.0822 25.8887 31.0822 25.8887C31.0822 25.8887 28.3961 26.1511 27.2339 27.2229C26.0717 28.2948 25.8592 30.9579 25.8592 30.9579C25.8592 30.9579 25.8779 28.3958 24.7882 27.2229C23.6986 26.0501 20.7881 26.0361 20.7881 26.0361Z" fill="white"/>
<path d="M61.5488 26.8643C61.5488 26.8643 64.4414 26.7152 65.7204 25.6885C66.9993 24.6618 67.2364 21.3442 67.2364 21.3442C67.2364 21.3442 67.1143 24.7366 68.236 25.5453C69.3576 26.354 72.1467 26.1098 72.1467 26.1098C72.1467 26.1098 69.3674 26.537 68.1053 27.7076C66.8432 28.8781 66.4591 31.6299 66.4591 31.6299C66.4591 31.6299 66.6376 28.9934 65.5897 27.8508C64.5417 26.7082 61.5488 26.8643 61.5488 26.8643Z" fill="white"/>
<path d="M15.4891 10.6074C15.4891 10.6074 18.3022 10.6227 19.4893 9.6921C20.6764 8.76151 20.7121 5.53825 20.7121 5.53825C20.7121 5.53825 20.7931 8.84088 21.9349 9.6921C23.0768 10.5433 25.7832 10.46 25.7832 10.46C25.7832 10.46 23.0971 10.7224 21.9349 11.7942C20.7728 12.8661 20.5603 15.5292 20.5603 15.5292C20.5603 15.5292 20.5789 12.9671 19.4893 11.7942C18.3996 10.6214 15.4891 10.6074 15.4891 10.6074Z" fill="white"/>
<path d="M41.1685 7.47974C41.1685 7.47974 42.8669 7.45287 43.5964 6.8757C44.3259 6.29854 44.3914 4.35174 44.3914 4.35174C44.3914 4.35174 44.3952 6.34497 45.0732 6.84432C45.7511 7.34367 47.3865 7.25865 47.3865 7.25865C47.3865 7.25865 45.7609 7.45155 45.0445 8.11368C44.3282 8.7758 44.1636 10.3866 44.1636 10.3866C44.1636 10.3866 44.2098 8.83927 43.5678 8.14506C42.9257 7.45084 41.1685 7.47974 41.1685 7.47974Z" fill="white"/>
<path d="M38.3152 31.2161C38.3152 31.2161 40.0136 31.1892 40.7431 30.612C41.4726 30.0349 41.5381 28.0881 41.5381 28.0881C41.5381 28.0881 41.542 30.0813 42.2199 30.5806C42.8978 31.08 44.5332 30.995 44.5332 30.995C44.5332 30.995 42.9076 31.1879 42.1913 31.85C41.4749 32.5121 41.3103 34.123 41.3103 34.123C41.3103 34.123 41.3565 32.5756 40.7145 31.8814C40.0725 31.1872 38.3152 31.2161 38.3152 31.2161Z" fill="white"/>
<path d="M49.3206 21.3259C49.3206 21.3259 51.019 21.2991 51.7485 20.7219C52.478 20.1447 52.5435 18.1979 52.5435 18.1979C52.5435 18.1979 52.5473 20.1912 53.2253 20.6905C53.9032 21.1899 55.5386 21.1048 55.5386 21.1048C55.5386 21.1048 53.913 21.2977 53.1966 21.9599C52.4803 22.622 52.3157 24.2328 52.3157 24.2328C52.3157 24.2328 52.3619 22.6855 51.7199 21.9912C51.0778 21.297 49.3206 21.3259 49.3206 21.3259Z" fill="white"/>
<path d="M89.6738 8.6665C89.6738 8.6665 91.3723 8.63963 92.1018 8.06247C92.8312 7.48531 92.8967 5.53851 92.8967 5.53851C92.8967 5.53851 92.9006 7.53174 93.5785 8.03109C94.2565 8.53044 95.8918 8.44541 95.8918 8.44541C95.8918 8.44541 94.2663 8.63832 93.5499 9.30044C92.8335 9.96257 92.6689 11.5734 92.6689 11.5734C92.6689 11.5734 92.7151 10.026 92.0731 9.33182C91.4311 8.63761 89.6738 8.6665 89.6738 8.6665Z" fill="white"/>
<path d="M145.924 25.9946C145.924 28.7079 140.587 35.661 132.936 35.9948C125.391 35.9948 94.214 36.0001 82.9886 36.0001C80.2001 32.5524 83.4631 24.4682 86.485 22.731C91.3761 19.3806 96.6986 19.9199 99.1825 22.4279C101.667 20.2591 104.887 16.6672 111.512 18.8718C114.456 15.6497 116.481 14.4625 121.817 13.9539C128.994 13.2699 131.57 15.989 133.227 18.0239C135.251 16.4976 145.924 21.0765 145.924 25.9946Z" fill="white" fill-opacity="0.89"/>
<path d="M145.516 26.8879C145.516 29.359 140.282 35.6913 132.776 35.9953C125.376 35.9953 94.7944 36.0001 83.7836 36.0001C81.0483 32.8602 84.249 25.4978 87.2132 23.9157C92.0107 20.8644 97.2315 21.3557 99.668 23.6397C102.105 21.6646 105.264 18.3933 111.762 20.4012C114.65 17.4667 116.636 16.3855 121.87 15.9223C128.91 15.2994 131.437 17.7757 133.062 19.6289C135.047 18.2389 145.516 22.409 145.516 26.8879Z" fill="#1E1A1A"/>
<path d="M141.082 31.7121C141.082 32.8749 137.139 35.8548 131.486 35.9979C125.912 35.9979 102.876 36.0001 94.5824 36.0001C92.522 34.5226 94.933 31.0579 97.1657 30.3134C100.779 28.8775 104.712 29.1087 106.547 30.1835C108.383 29.254 110.762 27.7146 115.657 28.6595C117.832 27.2785 119.328 26.7697 123.271 26.5518C128.574 26.2586 130.477 27.4239 131.701 28.2961C133.196 27.642 141.082 29.6043 141.082 31.7121Z" fill="white" fill-opacity="0.89"/>
<path d="M141.083 32.2478C141.083 33.2653 137.174 35.8727 131.569 35.9979C126.042 35.9979 103.206 35.9998 94.9833 35.9998C92.9408 34.707 95.3309 31.6754 97.5444 31.0239C101.127 29.7675 105.026 29.9698 106.845 30.9103C108.665 30.097 111.024 28.75 115.876 29.5768C118.033 28.3685 119.516 27.9232 123.425 27.7325C128.682 27.476 130.569 28.4957 131.782 29.2588C133.265 28.6864 141.083 30.4035 141.083 32.2478Z" fill="#1E1A1A"/>
</svg>
